<?xml version="1.0" encoding="UTF-8"?><svg id="_レイヤー_2" xmlns="http://www.w3.org/2000/svg" width="655.71" height="455.55" viewBox="0 0 655.71 455.55"><defs><style>.cls-1{fill:none;stroke:#000;stroke-miterlimit:10;}</style></defs><g id="_レイヤー_1-2"><path class="cls-1" d="M317.09.65c19.79-2.95,45.83,37.61,52.43,53.88,10.11,24.92,10.13,49.88,3.25,75.58,28.42-12.18,61.43-9.76,88.95,3.62,81.34-21.92,117.72,45.28,193.46,28.57.86,2.37-22.5,13.02-35.8,24.23-41.38,34.87-63.83,78.13-144.28,101.61,64,43.08,48.99,117.42,100.89,166.7-8.45-1.22-16.38-7.65-23.87-10.12-37.56-12.44-94.99-.9-169.95-47.73-45.73-28.57-65.25-59.09-83.17-109.2-14.47,30.2-46.56,51.08-79.55,54.96-34.91,4.11-30.86-8.54-33.99-9.4-60.97,16.15-105.26-7.51-142.47-10.85-16.3-1.46-41,3.06-42.31.36,78.67-31.55,60.96-104.28,153.32-133.79-14.37-10.69-43.73-56.76-25.67-70.51,4.1-3.12,28.21-12.41,33.99-13.74,34.98-8.07,66.15-.06,95.46,19.53-6.4-36.43,4.12-70.32,27.84-98,5.06-5.91,24.46-24.63,31.46-25.67Z"/><path class="cls-1" d="M527.54,157.59c.93-.04,1.24.1,1.08,1.08-10.48,4.37-21.98,30.18-19.89,31.46l82.81-10.49c1.04,2.51-36.99,6.22-36.88,8.68,9.06,6.58,19.8,13.3,31.46,10.49v1.45c-13.03,1.71-24.5-4.22-34.71-11.57l-32.91,7.59c16.55,18.04,34.79,19.37,36.52,20.61.63.45.62.99,0,1.45-15.5-2.36-27.76-11.75-39.78-20.97l-37.97,9.04c10.26,10.2,30.82,25.45,44.48,29.29,6.65,1.87,13.76,1.35,20.25,3.62-26.85,1.09-49.31-16.14-68.71-32.54l-15.55,3.25c2.98-2.17,12.55-12.25,13.38-12.66,3.14-1.52,27.27-4.79,33.99-6.51,1.93-6.38,16.2-32.97,22.42-33.27Z"/><path class="cls-1" d="M387.96,234.25c6.84-1.85,12.31,7.01,22.42,13.02,14.43,8.58,30.27,14.61,46.65,18.44-23.83-2.06-50.91-16.09-69.07-31.46Z"/><path class="cls-1" d="M435.7,221.96c4.55.95,11.06,9.04,17.36,13.74,36.71,27.4,52.89,20.63,52.43,23.5-26.79-.91-52.42-17.5-69.79-37.25Z"/><path class="cls-1" d="M565.87,155.42c5.19-1.07-4.41,3.35-6.51,5.06-6.7,5.45-13.41,13.86-13.38,22.78-8.85-.17,9.98-25.8,19.89-27.84Z"/><path class="cls-1" d="M508.74,148.91l-18.08,19.53c-3.46-1.62,15.12-18.62,18.08-19.53Z"/><path class="cls-1" d="M414.72,279.09c20.56.29,21.03,1.67,0,1.45v-1.45Z"/><path class="cls-1" d="M485.6,135.17c.8,0,1.65-.19,1.81.36-25.66,11.4-6.77-.42-1.81-.36Z"/><path class="cls-1" d="M463.9,315.97c10.55-.2,26.79,4.06,35.44,10.12,11,7.71-8.57-3.51-10.85-4.34-20.6-7.53-42.98-4.04-61.11,7.59l28.57,21.33c25.74-3.93,49.82-4.75,69.07,14.83-18.37-15.25-42.94-19.88-66.54-12.29l81.36,74.85c-7.12-3.71-45.49-36.83-48.46-37.61-.48-.13-1.55-.15-1.81.36,3.72,28.48,17.56,33.46,18.08,35.44,1.28,4.92-12-9.36-15.19-17.36-2.48-6.22-3.2-13.66-4.34-20.25l-30.74-22.78c-1.55.12,3.7,25.25,4.7,28.57,4.79,15.81,11.74,21.26,12.29,22.42,2.26,4.72-3.82-1.53-6.51-5.79-8.81-13.95-9.74-32.04-13.74-47.73l-37.25-24.23c-3.97,23.6,4.95,51.18,20.61,69.07.25,5.03-10.98-12.18-13.74-18.08-8.33-17.82-9.64-32.91-9.4-52.07,0-.22-1.71-1.55-2.17-2.17,6.13-26.12,5.81-8.09,13.38-8.32,2.01-.06,21.4-11.25,38.33-11.57Z"/><path class="cls-1" d="M458.12,294.28c4.4-.15,13.21.85,10.12,2.17-15.87-3.03-30.93,4.08-45.92,7.59,6.21-4.71,28.72-9.52,35.8-9.76Z"/><path class="cls-1" d="M532.24,389.02c-20.24-15.17-31.27-8.61-39.42-7.96-8.07.65,4.59-5.96,20.25-2.89,6.01,1.18,15.09,6.3,19.17,10.85Z"/><path class="cls-1" d="M131.22,213.28c17.78-1.16,42.89,11.87,57.13,22.42,36.9-12.27,21.45-13.04,6.87,14.1l-30.01,11.93c-8.55,15.7-19.44,37.06-32.54,49.18-1.52,1.41-12.89,10.05-13.74,10.12-4.36.36,5.12-4.19,9.4-7.96,14.81-13.04,24.51-31.48,32.54-49.18l-43.39,16.63c-4.63,3.31-11.62,24.93-24.59,33.27l-1.08-1.08c9.52-4.13,21.09-28.3,19.17-29.29l-61.47,26.04c22.17-11.29,44.27-22.69,65.45-35.8-7.03-8.21-18.21-8.41-27.84-10.49,15.69-1.99,29.91,8.82,31.82,8.68l29.29-16.27c-20.61-19.56-38.74-15.05-41.58-15.55-4.23-.75,5.43-3.28,16.63-.72,10.62,2.43,18.97,10.67,28.93,14.46l33.63-16.27c-9.34-6.55-21.42-15.52-32.18-19.17-19.64-6.65-40.08-1.03-22.42-5.06Z"/><path class="cls-1" d="M181.13,305.12c3.76,2.04-20.93,20.98-30.74,21.33,12.06-5.18,22.08-11.35,30.74-21.33Z"/><path class="cls-1" d="M381.46,360.81l18.08,31.1c-7.82-8.97-14.79-19.56-18.08-31.1Z"/><path class="cls-1" d="M532.24,389.02c.73.55,2.16.85,1.08,2.17-1.46-.98-1-2.08-1.08-2.17Z"/><path class="cls-1" d="M319.26,9.33c8.78-1.12,29.05,25.3,33.63,32.91,21.18,35.17,21.18,71.96,0,107.04-5.22,8.64-24.38,29.7-24.59,33.27-.15,2.59,3.62,10.88,6.15,11.93,11.75,4.89,17.77-15.1,2.53-15.55,14.14-7.51,18.89-14.92,37.25-20.61,15.34-4.76,43.28-7.24,7.23-4.34l-23.87,6.51-1.08-1.08c8.83-15.92,18.2-22.88,36.52-26.4,24.6-4.73,50.81.69,72.32,13.02,19.53,11.19,20.88,14.12,8.32,33.63-28.02,43.53-101.11,56.52-145.73,33.63-5.69,3.86-28.9,2.86-22.78,16.27,4.36,9.54,23.06.88,11.57-10.85,3.39-4.84,48.69,25.53,65.09,53.52,5.5,9.38,9.21,19.53,11.93,30.01-3.46-27.99-20.21-52.88-41.58-70.51,5.52,1.43,19.07,1.9,22.06,3.25,7.86,3.57,26.7,31.4,30.74,47.37,6.84,27.05-1.8,67.08-12.66,69.79-9.76,2.43-48.28-18.34-57.13-25.31-18.6-14.66-35.28-44.83-25.31-67.98,5.72,18.87,16.54,35.23,31.1,48.46,12.79,8.7-1.78-2.44-8.32-11.21-21.51-28.85-18.75-57.87-20.25-60.75-.16-.31-5.81-3.35-6.15-3.25-3.14.86-.07,30.32-20.61,61.11-15.12,22.66-43.35,38.78-70.51,40.86-17.28,1.32-21.56,1.51-24.23-16.27-5.75-38.23,10.7-70.47,38.69-95.1l25.67.36c-21.13,19.5-36.84,45.9-40.14,74.85,4.31-28.07,33.23-67.56,57.86-80.28,9.94-5.13,8.64.58,14.46-2.17,8.62-4.08,2.01-19.86-7.96-13.74-3.31,2.03-2.58,6.22-5.79,7.96-5.38,2.9-33.9,4.77-41.22,4.34-45.52-2.68-96.25-38.01-100.89-85.7,41.88-27.22,86.5-21.7,126.2,6.87,18.68,32.89,11.03,17.31-12.29,7.23-21.71-9.38-46.58-13.23-70.15-10.85,35.9-1.12,68.86,11.47,96.19,33.99,6.61,5.45,8.81,12.86,15.19,12.29,4.96,4.29,2.76,15.18,11.57,15.19,12.28.01,9.74-22.46-5.06-15.19-35.15-44.43-38.92-100.48-1.08-145,3.66-4.3,22.7-22.94,27.12-23.5Z"/><path class="cls-1" d="M284.55,68.63c-9.99,28.52-2.18,59.84,9.76,86.42,16.74-.02,16.33,9.57,6.15,19.89l-8.32-9.04c-11.15-30.59-22.34-65.96-7.59-97.27Z"/><path class="cls-1" d="M453.78,164.1l1.08.36c-30.33,24.17-75.78,35.58-114.27,32.54,1.18-.76,5.75-5.31,6.15-5.42,1.49-.44,21.19.43,31.1-.72,26.53-3.09,54.62-10.24,75.94-26.76Z"/><path class="cls-1" d="M327.94,50.55c20.54,30,4.89,103.83-5.06,105.59-8.3,1.46,2.35-10.97,6.87-27.12,7.19-25.67,7.13-53.31-1.81-78.47Z"/><path class="cls-1" d="M279.48,181.46c9.64-.63,13.01,15.41-.72,15.91-.16,0-2.21-1.76-2.89-1.45-1.42.65,1.13,2.4,1.08,2.53-1.51,4.27-40.19-5.48-49.18-12.29-.79-2.57,8.48,2.53,11.21,3.25,11.05,2.92,22.52,4.1,33.99,3.62-1.26-4.57,1.26-11.23,6.51-11.57Z"/><path class="cls-1" d="M317.81,156.14c13.31-1.99,12.53,19.26-1.45,15.91-7.31-1.75-5.78-14.83,1.45-15.91Z"/><path class="cls-1" d="M315.64,178.56c13.19-3.28,13.9,15.05,3.62,15.91-10.2.85-11.3-14-3.62-15.91Z"/><path class="cls-1" d="M291.78,215.45c14.48-3.6,13.38,18.41,0,15.19-6.42-1.54-6.28-13.63,0-15.19Z"/><path class="cls-1" d="M333.72,198.81c15.46-3.63,10.28,21.51-2.17,13.74-6.05-3.78-2.69-12.6,2.17-13.74Z"/><path class="cls-1" d="M317.81,198.81c9.75-.61,9.7,13.61,2.89,15.19-11.83,2.74-12.83-14.56-2.89-15.19Z"/><path class="cls-1" d="M298.29,197.37c11.89-2.76,12.28,13.91,2.89,14.46-9.53.56-9.74-12.88-2.89-14.46Z"/><path class="cls-1" d="M285.99,227.02c.2-.03,2.57,2.25,2.53,3.25-.06,1.75-19.07,24.03-21.33,27.84,1.91-3.74,17.01-30.83,18.8-31.1Z"/></g></svg>